<svg width="722" height="610" viewBox="0 0 722 610" fill="none" xmlns="http://www.w3.org/2000/svg">
<path d="M6 483.048C18.2424 412.4 244.177 138.053 355.614 5C523.947 195.748 717 437.127 717 483.048C617.177 435.95 528.656 446.547 355.614 496C119.007 438.305 74.2748 467.741 6 483.048Z" fill="#50FA7B"/>
<path d="M569.53 305C569.53 420.655 475.773 514.412 360.118 514.412C244.463 514.412 150.706 420.655 150.706 305C191.883 197.941 200.428 104.412 360.118 104.412C511.883 104.412 528.941 185 569.53 305Z" fill="#E8B8FF"/>
<path d="M73.4485 208.529C91.0956 174.412 156.586 210.882 176.978 228.529V333.235C166.782 338.725 139.566 346.412 112.272 333.235C87.5662 304.216 70.2055 214.799 73.4485 208.529Z" fill="#E8B8FF"/>
<path d="M647.566 208.474C629.919 174.356 564.429 210.827 544.037 228.474V333.179C554.233 338.67 581.449 346.356 608.743 333.179C633.449 304.16 650.809 214.743 647.566 208.474Z" fill="#E8B8FF"/>
<path d="M360.118 99.1177C193.647 99.1177 203.059 177.353 174.824 223.823H151.294C150.484 232.898 151.013 249.149 157.861 253.456C151.696 253.632 143.338 254.054 137.177 254.412C136.392 263.823 138.118 282.765 151.294 283.235C164.471 283.706 144.235 285.392 132.471 286.176C134.824 299.314 143.059 325.118 157.177 323.235C157.373 311.078 167.53 275.471 206.588 230.294C206 179.314 235.882 96.0587 360.118 170.882C484.353 96.0587 514.235 179.314 513.647 230.294C552.706 275.47 562.863 311.078 563.059 323.235C577.177 325.118 585.412 299.314 587.765 286.176C576 285.392 555.765 283.706 568.941 283.235C582.118 282.765 583.843 263.823 583.059 254.412C576.897 254.054 568.539 253.632 562.375 253.456C569.223 249.149 569.752 232.897 568.941 223.823H545.412C517.177 177.353 526.588 99.1177 360.118 99.1177Z" fill="#282A36"/>
<path d="M250.706 145C240.706 160.882 237.177 169.706 211.883 193.235C236.824 187.118 253.647 179.706 258.941 176.765C323.647 232.647 351.946 212.827 344.824 208.529C310.706 187.941 278.353 166.765 250.706 145Z" fill="#282A36"/>
<path d="M470.603 148.529C480.603 164.412 484.132 173.235 509.426 196.765C484.485 190.647 467.662 183.235 462.368 180.294C397.662 236.176 369.363 216.357 376.485 212.059C410.603 191.47 442.956 170.294 470.603 148.529Z" fill="#282A36"/>
<path d="M323.766 255.646C316.315 270.352 287.766 294.587 233.177 273.881C246.511 246.822 283.295 205.293 323.766 255.646Z" fill="white"/>
<circle cx="283.766" cy="253.293" r="21.1765" fill="#44475A"/>
<path d="M279.648 227.411C243.413 228.352 236.119 270.352 212.001 272.705C208.236 279.293 213.57 282.509 216.707 283.293C246.824 272.469 241.413 245.058 279.648 235.058C307.413 230.822 320.236 253.293 324.354 259.175C328.589 260.587 330.621 259.175 329.06 255.646C318.236 231.175 304.354 226.769 279.648 227.411Z" fill="#282A36"/>
<path d="M396.643 255.646C404.094 270.352 432.643 294.587 487.231 273.881C473.897 246.822 437.113 205.293 396.643 255.646Z" fill="white"/>
<circle r="21.1765" transform="matrix(-1 0 0 1 436.643 253.293)" fill="#44475A"/>
<path d="M440.76 227.411C476.996 228.352 484.29 270.352 508.407 272.705C512.172 279.293 506.839 282.509 503.701 283.293C473.584 272.469 478.996 245.058 440.76 235.058C412.996 230.822 400.172 253.293 396.054 259.175C391.819 260.587 389.787 259.175 391.348 255.646C402.172 231.175 416.054 226.769 440.76 227.411Z" fill="#282A36"/>
<path d="M195.412 356.765C228.941 383.235 481.294 389.118 526 356.765M203.059 336.765C198.549 342.255 191.647 358.059 200.118 377.353M518.463 336.765C522.973 342.255 529.875 358.059 521.405 377.353" stroke="#282A36" stroke-width="9" stroke-linecap="round"/>
<path d="M241.294 369.706C310.118 384.412 423.647 383.235 480.118 373.235C410.706 505 314.235 506.176 241.294 369.706Z" fill="#282A36"/>
<path d="M297.765 418.529C291.177 414.765 282.471 393.431 278.941 383.235L304.824 386.176C305.216 398.529 304.353 422.294 297.765 418.529Z" fill="#FEFEFE"/>
<path d="M423.727 419.118C430.315 415.353 439.021 394.02 442.55 383.823L416.668 386.765C416.276 399.118 417.138 422.882 423.727 419.118Z" fill="#FEFEFE"/>
<path d="M323.133 383.235C287.839 395.941 345.486 446.176 360.78 454.412C376.074 446.176 433.721 395.941 398.427 383.235C391.956 379.706 375.368 376.765 360.78 393.235C346.192 376.765 329.603 379.706 323.133 383.235Z" fill="#FF8B8B"/>
<path d="M357.262 196.356C357.967 193.261 362.367 193.238 363.105 196.325L400.389 352.376C400.611 353.309 400.375 354.292 399.753 355.021L362.454 398.732C361.238 400.157 359.028 400.132 357.846 398.679L322.291 354.995C321.709 354.279 321.488 353.334 321.693 352.434L357.262 196.356Z" fill="#CC9EE1"/>
<circle cx="447.177" cy="265" r="61.9118" stroke="#44475A" stroke-width="15"/>
<path d="M301.294 503.824C340.824 519.824 347.177 497.941 360.118 497.941C373.059 497.941 379.412 519.824 418.941 503.824C426.588 517.941 424.118 525.941 409.53 548.529C409.137 542.451 407.53 531.941 404.235 538.529C400.706 549.706 397.177 560.882 391.882 565C391.49 561.078 390.118 554.412 387.765 559.118C380.412 573.824 368.118 587.941 360.118 595C352.118 587.941 339.824 573.824 332.471 559.118C330.118 554.412 328.745 561.078 328.353 565C323.059 560.882 319.53 549.706 316 538.529L316 538.529C312.706 531.941 311.098 542.451 310.706 548.529C296.118 525.941 293.647 517.941 301.294 503.824Z" fill="#282A36"/>
</svg>
